<svg id="Layer_1" xmlns="http://www.w3.org/2000/svg" viewBox="0 0 68.1 68.1"><style>.st0{fill:#EA3424;} .st1{fill:#FEECE6;}</style><path class="st0" d="M0 0h68.1v68.1H0z"/><path class="st1" d="M45.3 15.3c.5 4.9-.6 8-6.7 7.5-4.1-.4-3.9 3.1-3.9 6 0 3.1 1 4.8 4.3 4.6 3.9-.3 6.5.7 6.3 5.4-.1 3-1.1 4.9-4.3 4.7-4.6-.3-6.6 1.5-6.3 6.4.3 3.9-2.9 4.1-6 4.1-3 0-4.1-1.5-4-4.4 0-3-.1-6.1 4-5.8 4.6.3 7-1.1 6.5-6.1-.5-5.7-4.5-4.6-8.1-4.4-3.9-1.7-2.4-5.1-2.1-7.8.3-2.6 2.9-2.2 4.8-2.1 3.5.1 5.3-1.2 5.3-4.9 0-2.1-.6-4.8 2.4-5.1 2.7-.6 6-1.7 7.8 1.9z"/></svg>