<?xml version="1.0" encoding="utf-8"?>
<!-- Generator: Adobe Illustrator 19.0.1, SVG Export Plug-In . SVG Version: 6.00 Build 0)  -->
<svg version="1.1" id="Layer_1" xmlns="http://www.w3.org/2000/svg" xmlns:xlink="http://www.w3.org/1999/xlink" x="0px" y="0px"
	 viewBox="0 0 68.1 68.1" style="enable-background:new 0 0 68.1 68.1;" xml:space="preserve">
<style type="text/css">
	.st0{fill:#EA3424;}
	.st1{fill:#FEECE6;}
</style>
<rect class="st0" width="68.1" height="68.1"/>
<path class="st1" d="M45.3,15.3c0.5,4.9-0.6,8-6.7,7.5c-4.1-0.4-3.9,3.1-3.9,6c0,3.1,1,4.8,4.3,4.6c3.9-0.3,6.5,0.7,6.3,5.4
	c-0.1,3-1.1,4.9-4.3,4.7c-4.6-0.3-6.6,1.5-6.3,6.4c0.3,3.9-2.9,4.1-6,4.1c-3,0-4.1-1.5-4-4.4c0-3-0.1-6.1,4-5.8
	c4.6,0.3,7-1.1,6.5-6.1c-0.5-5.7-4.5-4.6-8.1-4.4c-3.9-1.7-2.4-5.1-2.1-7.8c0.3-2.6,2.9-2.2,4.8-2.1c3.5,0.1,5.3-1.2,5.3-4.9
	c0-2.1-0.6-4.8,2.4-5.1C40.2,12.8,43.5,11.7,45.3,15.3z"/>
</svg>
